<svg width="23" height="24" viewBox="0 0 23 24" fill="none" xmlns="http://www.w3.org/2000/svg">
<path d="M6.45156 0.647264C6.36719 0.689453 6.25 0.801952 6.19375 0.895702C6.09063 1.05976 6.08594 1.11601 6.0625 2.36758L6.03906 3.6707L5.64062 3.82539C4.55781 4.2332 3.72813 5.12383 3.39063 6.23476L3.2875 6.57227H2.01719C0.826563 6.57227 0.732813 6.57695 0.5875 6.66602C0.3625 6.80664 0.25 7.01758 0.25 7.32226C0.25 7.62695 0.3625 7.83789 0.5875 7.97851C0.732813 8.06758 0.826563 8.07226 1.99844 8.07226H3.25V9.57226V11.0723H1.99844C0.826563 11.0723 0.732813 11.077 0.5875 11.166C0.3625 11.3066 0.25 11.5176 0.25 11.8223C0.25 12.127 0.3625 12.3379 0.5875 12.4785C0.732813 12.5676 0.826563 12.5723 1.99844 12.5723H3.25V14.0723V15.5723H1.99844C0.826563 15.5723 0.732813 15.577 0.5875 15.666C0.3625 15.8066 0.25 16.0176 0.25 16.3223C0.25 16.627 0.3625 16.8379 0.5875 16.9785C0.732813 17.0676 0.826563 17.0723 2.01719 17.0723H3.2875L3.39063 17.4098C3.73281 18.5348 4.58125 19.4348 5.6875 19.8379L6.03906 19.9691L6.0625 21.2723C6.08125 22.4348 6.09531 22.5941 6.17031 22.7207C6.32969 22.9785 6.47031 23.0488 6.84531 23.0488C7.15469 23.0488 7.19219 23.0395 7.33281 22.9082C7.59531 22.6598 7.60938 22.5848 7.60938 21.2676V20.0723H9.17969H10.75V21.3238C10.75 22.4957 10.7547 22.5895 10.8438 22.7348C10.9844 22.9598 11.1953 23.0723 11.5 23.0723C11.8047 23.0723 12.0156 22.9598 12.1562 22.7348C12.2453 22.5895 12.25 22.4957 12.25 21.3238V20.0723H13.6563H15.0625V21.277C15.0625 22.3879 15.0719 22.4957 15.1563 22.6691C15.3063 22.9691 15.4469 23.0488 15.8453 23.0488C16.1547 23.0488 16.1922 23.0395 16.3328 22.9082C16.5953 22.6598 16.6094 22.5848 16.6094 21.2488V20.0348L16.8391 19.9832C18.1328 19.7066 19.2203 18.6988 19.6094 17.4098L19.7125 17.0723H20.9828C22.1734 17.0723 22.2672 17.0676 22.4125 16.9785C22.6375 16.8379 22.75 16.627 22.75 16.3223C22.75 16.0176 22.6375 15.8066 22.4125 15.666C22.2672 15.577 22.1734 15.5723 21.0063 15.5723H19.75V14.0723V12.5723H21.0063C22.1734 12.5723 22.2672 12.5676 22.4125 12.4785C22.6375 12.3379 22.75 12.127 22.75 11.8223C22.75 11.5176 22.6375 11.3066 22.4125 11.166C22.2672 11.077 22.1734 11.0723 21.0063 11.0723H19.75V9.57226V8.07226H21.0063C22.1734 8.07226 22.2672 8.06758 22.4125 7.97851C22.6375 7.83789 22.75 7.62695 22.75 7.32226C22.75 7.01758 22.6375 6.80664 22.4125 6.66602C22.2672 6.57695 22.1734 6.57227 20.9828 6.57227H19.7125L19.6094 6.23476C19.4125 5.58789 19.0891 5.07227 18.5922 4.59883C18.0859 4.1207 17.4813 3.79726 16.8391 3.66133L16.6094 3.60976V2.3957C16.6094 1.05976 16.5953 0.984764 16.3328 0.736328C16.2109 0.623827 16.1406 0.595703 15.8922 0.58164C15.5219 0.562889 15.3203 0.666016 15.1703 0.947266C15.0672 1.14414 15.0625 1.19102 15.0625 2.36289V3.57227H13.6563H12.25V2.31602C12.25 1.14883 12.2453 1.05508 12.1562 0.909765C12.0156 0.684765 11.8047 0.572266 11.5 0.572266C11.1953 0.572266 10.9844 0.684765 10.8438 0.909765C10.7547 1.05508 10.75 1.14883 10.75 2.31602V3.57227H9.17969H7.60938V2.37695C7.60938 1.06445 7.59531 0.984764 7.33281 0.736328C7.20625 0.619141 7.14063 0.595703 6.89219 0.586327C6.69063 0.572266 6.55469 0.591015 6.45156 0.647264ZM16.6422 5.19883C17.3688 5.44258 17.9172 6.00977 18.1422 6.73633C18.2219 6.99883 18.2266 7.30352 18.2266 11.8223C18.2266 16.341 18.2219 16.6457 18.1422 16.9082C17.9125 17.6582 17.3078 18.2582 16.5766 18.4598C16.2766 18.5441 16 18.5488 11.5 18.5488C7 18.5488 6.72344 18.5441 6.42344 18.4598C5.69219 18.2582 5.0875 17.6582 4.85781 16.9082C4.77813 16.6457 4.77344 16.341 4.77344 11.8223C4.77344 7.30352 4.77813 6.99883 4.85781 6.73633C5.125 5.85976 5.84219 5.2457 6.74219 5.11914C6.89688 5.10039 9.12344 5.08633 11.6875 5.09101C16.3188 5.0957 16.3516 5.0957 16.6422 5.19883Z" fill="#D9D9D9"/>
<path d="M7.7875 6.66133C7.10781 6.88164 6.52656 7.47695 6.325 8.16133C6.25938 8.38633 6.25 8.85039 6.25 11.8223C6.25 14.7941 6.25938 15.2582 6.325 15.4832C6.52656 16.177 7.1125 16.7676 7.80156 16.9832C8.06875 17.0676 8.27969 17.0723 11.5 17.0723C14.7203 17.0723 14.9313 17.0676 15.1984 16.9832C15.8875 16.7676 16.4734 16.177 16.675 15.4832C16.7406 15.2582 16.75 14.7941 16.75 11.8223C16.75 8.85039 16.7406 8.38633 16.675 8.16133C16.4734 7.46758 15.8875 6.87695 15.1984 6.66133C14.9313 6.57695 14.7203 6.57227 11.4859 6.57695C8.28906 6.57695 8.03594 6.58164 7.7875 6.66133ZM14.6125 8.11914C14.8422 8.1707 15.0109 8.29258 15.1328 8.49883C15.2219 8.65351 15.2266 8.74258 15.2266 11.8223C15.2266 14.902 15.2219 14.991 15.1328 15.1457C15.0109 15.352 14.8422 15.4738 14.6125 15.5254C14.3734 15.5816 8.62656 15.5816 8.3875 15.5254C8.15781 15.4738 7.98906 15.352 7.86719 15.1457C7.77813 14.991 7.77344 14.902 7.77344 11.8223C7.77344 8.74258 7.77813 8.65351 7.86719 8.49883C7.98438 8.30195 8.15781 8.16602 8.36406 8.11914C8.58438 8.06758 14.3875 8.06289 14.6125 8.11914Z" fill="#D9D9D9"/>
</svg>
