<svg width="18" height="19" viewBox="0 0 18 19" fill="none" xmlns="http://www.w3.org/2000/svg">
<g filter="url(#filter0_b_5846_4405)">
<path d="M13.2588 2.83984H4.83837C4.63425 2.83984 4.43903 2.92338 4.2981 3.07103L3.55662 3.84782C3.45352 3.95582 3.38517 4.09223 3.36037 4.23946L2.42053 9.81879C2.34524 10.2658 2.68223 10.6763 3.13533 10.6894L14.7585 11.0277C15.2466 11.0419 15.6168 10.5917 15.5086 10.1156L13.9871 3.42121C13.9098 3.08116 13.6075 2.83984 13.2588 2.83984Z" fill="url(#paint0_linear_5846_4405)" fill-opacity="0.2"/>
</g>
<path d="M16.0211 10.5917L14.9336 4.61651C14.8308 4.01074 14.5152 3.46152 14.0438 3.06752C13.5723 2.67352 12.9757 2.46057 12.3613 2.46694H5.63925C5.02579 2.46117 4.43032 2.67402 3.95952 3.06736C3.48872 3.4607 3.17335 4.00882 3.06992 4.61352L1.98243 10.5887C1.93176 10.8755 1.90677 11.1662 1.90774 11.4573V14.0439C1.90774 15.7543 2.81149 16.658 4.52189 16.658H13.4817C15.1921 16.658 16.0958 15.7543 16.0958 14.0439V11.4603C16.0968 11.1691 16.0718 10.8784 16.0211 10.5917ZM3.80486 4.74722C3.87852 4.31533 4.10359 3.92379 4.43974 3.6428C4.77589 3.3618 5.20114 3.20973 5.63925 3.21383H12.3613C12.7999 3.20901 13.2259 3.36076 13.5627 3.64182C13.8995 3.92288 14.125 4.31481 14.1987 4.74722L15.2346 10.446C14.7239 10.0847 14.1066 9.90506 13.4817 9.93592H4.5189C3.89497 9.90573 3.27889 10.0853 2.76892 10.446L3.80486 4.74722ZM15.3489 14.0439C15.3489 15.3352 14.7731 15.9111 13.4817 15.9111H4.5189C3.22751 15.9111 2.65165 15.3352 2.65165 14.0439V12.5501C2.65165 11.2587 3.22751 10.6828 4.5189 10.6828H13.4817C14.7731 10.6828 15.3489 11.2587 15.3489 12.5501V14.0439ZM13.295 13.297C13.295 13.4078 13.2621 13.5161 13.2005 13.6082C13.139 13.7003 13.0515 13.7721 12.9491 13.8145C12.8468 13.8569 12.7342 13.868 12.6255 13.8464C12.5168 13.8248 12.417 13.7714 12.3387 13.6931C12.2603 13.6147 12.207 13.5149 12.1854 13.4062C12.1638 13.2976 12.1748 13.1849 12.2172 13.0826C12.2596 12.9802 12.3314 12.8927 12.4236 12.8312C12.5157 12.7696 12.624 12.7368 12.7348 12.7368C12.8833 12.7368 13.0258 12.7958 13.1309 12.9009C13.2359 13.0059 13.295 13.1484 13.295 13.297ZM11.0543 13.297C11.0543 13.4078 11.0214 13.5161 10.9599 13.6082C10.8983 13.7003 10.8108 13.7721 10.7085 13.8145C10.6061 13.8569 10.4935 13.868 10.3848 13.8464C10.2761 13.8248 10.1763 13.7714 10.098 13.6931C10.0196 13.6147 9.96629 13.5149 9.94467 13.4062C9.92306 13.2976 9.93415 13.1849 9.97655 13.0826C10.0189 12.9802 10.0907 12.8927 10.1829 12.8312C10.275 12.7696 10.3833 12.7368 10.4941 12.7368C10.6427 12.7368 10.7851 12.7958 10.8902 12.9009C10.9952 13.0059 11.0543 13.1484 11.0543 13.297Z" fill="white"/>
<defs>
<filter id="filter0_b_5846_4405" x="-0.577681" y="-0.147749" width="19.0929" height="14.1627" filterUnits="userSpaceOnUse" color-interpolation-filters="sRGB">
<feFlood flood-opacity="0" result="BackgroundImageFix"/>
<feGaussianBlur in="BackgroundImageFix" stdDeviation="1.4938"/>
<feComposite in2="SourceAlpha" operator="in" result="effect1_backgroundBlur_5846_4405"/>
<feBlend mode="normal" in="SourceGraphic" in2="effect1_backgroundBlur_5846_4405" result="shape"/>
</filter>
<linearGradient id="paint0_linear_5846_4405" x1="9.00016" y1="2.83984" x2="9.00016" y2="11.0557" gradientUnits="userSpaceOnUse">
<stop stop-color="white"/>
<stop offset="1" stop-color="#707070"/>
</linearGradient>
</defs>
</svg>
