<svg width="425" height="74" viewBox="0 0 425 74" fill="none" xmlns="http://www.w3.org/2000/svg">
<path d="M54.71 2.68994C54.14 2.68994 53.58 2.70993 53.02 2.73993C52.91 2.73993 52.81 2.75995 52.7 2.75995C52.24 2.78995 51.78 2.81993 51.33 2.86993C51.23 2.86993 51.12 2.89994 51.02 2.90994C50.56 2.95994 50.11 3.01995 49.65 3.09995C49.56 3.10995 49.46 3.12993 49.37 3.14993C48.91 3.22993 48.46 3.30993 48.01 3.39993C47.91 3.42993 47.81 3.44994 47.7 3.46994C47.26 3.56994 46.83 3.67993 46.4 3.79993C46.28 3.82993 46.16 3.85993 46.04 3.89993C45.64 4.00993 45.23 4.12995 44.83 4.25995C44.69 4.30995 44.54 4.35994 44.4 4.40994C44.04 4.53994 43.68 4.65993 43.32 4.79993C43.14 4.86993 42.97 4.93995 42.79 5.00995C42.48 5.13995 42.17 5.25993 41.87 5.39993C41.65 5.49993 41.43 5.58994 41.22 5.68994C40.97 5.80994 40.72 5.92993 40.48 6.04993C40.22 6.17993 39.95 6.31992 39.69 6.44992C39.52 6.53992 39.35 6.63995 39.19 6.72995C38.86 6.90995 38.54 7.09995 38.23 7.28995C38.16 7.32995 38.09 7.36994 38.03 7.40994C36.19 8.53994 34.46 9.84995 32.87 11.3499C31.21 11.0399 29.53 10.8799 27.82 10.8799C12.48 10.8799 0 23.3599 0 38.6999C0 54.0399 12.48 66.5199 27.82 66.5199C32.5 66.5199 36.91 65.3599 40.78 63.3099C45.11 65.4099 49.86 66.5199 54.71 66.5199C72.31 66.5199 86.62 52.2099 86.62 34.6099C86.62 17.0099 72.31 2.68994 54.71 2.68994ZM54.71 56.4699C53.01 56.4699 51.32 56.2599 49.69 55.8699C53.41 51.1399 55.64 45.1799 55.64 38.6999H45.59C45.59 48.4999 37.62 56.4699 27.82 56.4699C18.02 56.4699 10.06 48.4999 10.06 38.6999C10.06 29.5799 16.96 22.0499 25.82 21.0499C25.65 21.4199 25.48 21.7999 25.32 22.1699C25.29 22.2399 25.26 22.3199 25.23 22.3999C25.07 22.7699 24.92 23.1399 24.79 23.5199C24.71 23.7199 24.64 23.9299 24.57 24.1299C24.48 24.3799 24.39 24.6399 24.31 24.8999C24.23 25.1499 24.16 25.3999 24.08 25.6499C24.02 25.8699 23.96 26.0899 23.89 26.3099C23.82 26.5799 23.76 26.8499 23.69 27.1299C23.64 27.3399 23.59 27.5499 23.54 27.7599C23.48 28.0399 23.43 28.3099 23.37 28.5899C23.33 28.8099 23.29 29.0299 23.25 29.2599C23.21 29.5199 23.16 29.7899 23.12 30.0599C23.09 30.3099 23.06 30.5599 23.03 30.8099C23 31.0599 22.97 31.2999 22.94 31.5499C22.92 31.8599 22.9 32.1599 22.87 32.4599C22.86 32.6699 22.84 32.8599 22.83 33.0599C22.81 33.5699 22.8 34.0899 22.8 34.6099C22.8 35.9799 22.89 37.3499 23.06 38.6999H33.25C33.14 38.1599 33.06 37.6099 33 37.0499C32.98 36.8899 32.96 36.7399 32.95 36.5799C32.93 36.3799 32.91 36.1699 32.9 35.9699C32.87 35.5199 32.85 35.0599 32.85 34.6099C32.85 34.2499 32.86 33.8999 32.88 33.5499C32.88 33.4199 32.89 33.2799 32.9 33.1399C32.92 32.9299 32.93 32.7199 32.95 32.5099C32.97 32.3399 32.99 32.1699 33.01 32.0099C33.03 31.8299 33.05 31.6599 33.07 31.4899C33.1 31.3099 33.13 31.1299 33.16 30.9499C33.19 30.7899 33.21 30.6399 33.24 30.4799C33.28 30.2999 33.32 30.1099 33.36 29.9199C33.39 29.7699 33.42 29.6199 33.46 29.4699C33.51 29.2899 33.55 29.1099 33.6 28.9299C33.64 28.7699 33.69 28.6099 33.73 28.4599C33.78 28.2899 33.83 28.1299 33.88 27.9599C33.95 27.7699 34.01 27.5899 34.07 27.3999C34.12 27.2699 34.16 27.1499 34.21 27.0199C34.31 26.7399 34.42 26.4599 34.54 26.1699C34.54 26.1499 34.56 26.1199 34.57 26.0899C36.35 21.8999 39.41 18.3799 43.25 15.9999C43.31 15.9599 43.37 15.9199 43.43 15.8799C43.64 15.7599 43.84 15.6399 44.05 15.5299C44.18 15.4599 44.31 15.3799 44.44 15.3199C44.6 15.2299 44.77 15.1399 44.94 15.0599C45.12 14.9599 45.3 14.8799 45.48 14.7899C45.62 14.7299 45.75 14.6699 45.9 14.6099C46.12 14.5099 46.34 14.4199 46.56 14.3299C46.67 14.2799 46.78 14.2399 46.9 14.1899C47.15 14.0899 47.41 13.9999 47.66 13.9099C47.75 13.8899 47.84 13.8499 47.93 13.8199C48.22 13.7299 48.5 13.6499 48.79 13.5599C48.86 13.5499 48.94 13.5299 49.01 13.4999C49.31 13.4199 49.62 13.3399 49.92 13.2799C49.99 13.2599 50.05 13.2499 50.12 13.2299C50.43 13.1599 50.74 13.1099 51.06 13.0599C51.12 13.0399 51.18 13.0299 51.25 13.0199C51.56 12.9699 51.87 12.9299 52.19 12.8899C52.26 12.8799 52.33 12.8699 52.39 12.8699C52.71 12.8299 53.03 12.8099 53.34 12.7899C53.41 12.7899 53.48 12.7799 53.55 12.7799C53.94 12.7499 54.32 12.7399 54.71 12.7399C66.76 12.7399 76.57 22.5499 76.57 34.6099C76.57 46.6699 66.76 56.4699 54.71 56.4699Z" fill="url(#paint0_linear_2182_1169)"/>
<path d="M131.76 21.37C128.24 17.96 123.49 16.25 117.52 16.25C111.55 16.25 106.8 17.97 103.28 21.41C99.76 24.85 98 29.79 98 36.25V56.8H107.52V36.25C107.52 32.57 108.41 29.79 110.2 27.93C111.98 26.06 114.42 25.13 117.52 25.13C120.62 25.13 123.05 26.06 124.84 27.93C126.62 29.79 127.52 32.57 127.52 36.25V56.8H137.03V36.25C137.03 29.74 135.27 24.78 131.76 21.37Z" fill="white"/>
<path d="M184.07 40.41V37.05C184.07 31.02 182.09 26.05 178.15 22.13C174.2 18.21 169.13 16.25 162.95 16.25C156.77 16.25 151.6 18.21 147.63 22.13C143.66 26.05 141.67 31.02 141.67 37.05C141.67 43.08 143.66 48.04 147.63 51.96C151.6 55.88 156.71 57.84 162.95 57.84C167.59 57.84 171.63 56.72 175.07 54.48C178.51 52.24 180.97 49.23 182.47 45.44H172.31C170.33 47.95 167.22 49.2 162.95 49.2C160.02 49.2 157.56 48.43 155.59 46.88C153.62 45.34 152.31 43.23 151.67 40.57V40.41H184.07ZM151.91 32.65C152.66 30.19 153.99 28.29 155.91 26.93C157.83 25.57 160.18 24.89 162.95 24.89C165.72 24.89 168 25.58 169.95 26.97C171.89 28.36 173.24 30.25 173.99 32.65V32.81H151.91V32.65Z" fill="white"/>
<path d="M226.06 17.29L216.48 29.38H205.23L214.78 17.29H226.06Z" fill="url(#paint1_linear_2182_1169)"/>
<path d="M262.77 22.05C258.88 18.18 253.79 16.25 247.5 16.25C241.21 16.25 236.15 18.21 232.18 22.13C228.2 26.05 226.22 31.02 226.22 37.05C226.22 43.61 228.18 48.71 232.1 52.36C236.02 56.02 240.56 57.84 245.73 57.84C248.67 57.84 251.28 57.26 253.57 56.08C255.87 54.91 257.65 53.31 258.93 51.28H259.09V73.68H268.61V37.37C268.61 31.02 266.66 25.92 262.77 22.05ZM255.89 45.64C253.76 47.86 250.96 48.96 247.5 48.96C244.04 48.96 241.22 47.86 239.06 45.64C236.9 43.43 235.82 40.57 235.82 37.05C235.82 33.53 236.9 30.66 239.06 28.45C241.22 26.24 244.03 25.13 247.5 25.13C250.97 25.13 253.76 26.24 255.89 28.45C258.03 30.66 259.09 33.53 259.09 37.05C259.09 40.57 258.03 43.43 255.89 45.64Z" fill="white"/>
<path d="M276.21 0V56.79H285.73V0H276.21Z" fill="white"/>
<path d="M328.32 22.12C324.35 18.2 319.24 16.24 313 16.24C306.76 16.24 301.66 18.2 297.68 22.12C293.71 26.04 291.73 31.01 291.73 37.04C291.73 43.07 293.71 48.03 297.68 51.95C301.66 55.87 306.76 57.83 313 57.83C319.24 57.83 324.35 55.87 328.32 51.95C332.29 48.03 334.28 43.06 334.28 37.04C334.28 31.02 332.29 26.04 328.32 22.12ZM321.4 45.63C319.27 47.85 316.47 48.95 313 48.95C309.53 48.95 306.72 47.85 304.56 45.63C302.4 43.42 301.32 40.56 301.32 37.04C301.32 33.52 302.4 30.65 304.56 28.44C306.72 26.23 309.54 25.12 313 25.12C316.46 25.12 319.27 26.23 321.4 28.44C323.53 30.65 324.6 33.52 324.6 37.04C324.6 40.56 323.53 43.42 321.4 45.63Z" fill="white"/>
<path d="M368.43 17.29V37.85C368.43 41.53 367.54 44.3 365.75 46.16C363.97 48.03 361.53 48.96 358.43 48.96C355.33 48.96 352.9 48.03 351.12 46.16C349.33 44.3 348.44 41.53 348.44 37.85V17.29H338.92V37.85C338.92 44.35 340.68 49.31 344.2 52.72C347.72 56.14 352.46 57.84 358.43 57.84C364.4 57.84 369.15 56.12 372.67 52.68C376.19 49.24 377.95 44.3 377.95 37.85V17.29H368.43Z" fill="white"/>
<path d="M415.46 0V22.8H415.3C414.02 20.77 412.24 19.17 409.94 18C407.65 16.83 405.04 16.24 402.11 16.24C396.93 16.24 392.39 18.07 388.47 21.72C384.55 25.37 382.59 30.48 382.59 37.04C382.59 43.06 384.58 48.03 388.55 51.95C392.52 55.87 397.63 57.83 403.87 57.83C410.11 57.83 415.25 55.9 419.14 52.03C423.03 48.17 424.98 43.06 424.98 36.72V0H415.46ZM412.26 45.63C410.13 47.85 407.33 48.95 403.87 48.95C400.41 48.95 397.59 47.85 395.43 45.63C393.27 43.42 392.19 40.56 392.19 37.04C392.19 33.52 393.27 30.65 395.43 28.44C397.59 26.23 400.4 25.12 403.87 25.12C407.34 25.12 410.13 26.23 412.26 28.44C414.4 30.65 415.46 33.52 415.46 37.04C415.46 40.56 414.4 43.42 412.26 45.63Z" fill="white"/>
<path d="M226.7 56.8H215.18L205.03 43.85L194.78 56.8H183.59L199.45 36.7L184.23 17.29H195.74L205.22 29.38H205.23L206.04 30.44L210.82 36.54L226.7 56.8Z" fill="white"/>
<defs>
<linearGradient id="paint0_linear_2182_1169" x1="0" y1="34.5999" x2="86.62" y2="34.5999" gradientUnits="userSpaceOnUse">
<stop stop-color="#009EFF"/>
<stop offset="1" stop-color="#8000FF"/>
</linearGradient>
<linearGradient id="paint1_linear_2182_1169" x1="205.23" y1="23.33" x2="226.06" y2="23.33" gradientUnits="userSpaceOnUse">
<stop stop-color="#8000FF"/>
<stop offset="1" stop-color="#009EFF"/>
</linearGradient>
</defs>
</svg>
