<svg width="25" height="20" viewBox="0 0 25 20" fill="none" xmlns="http://www.w3.org/2000/svg">
<path d="M5.69375 0.582952C5.22031 0.73764 4.84063 1.02826 4.59219 1.43608C4.53594 1.52045 3.59844 3.94858 2.50625 6.82201L0.523438 12.0486V14.8611V17.6736L0.673438 17.9876C0.8375 18.3392 1.16094 18.6908 1.48438 18.883C1.97188 19.1689 1.28281 19.1501 12.5 19.1501C23.7172 19.1501 23.0281 19.1689 23.5156 18.883C23.8391 18.6908 24.1625 18.3392 24.3266 17.9876L24.4766 17.6736L24.4906 14.9783C24.5 13.197 24.4859 12.2173 24.4531 12.0861C24.3734 11.758 20.5203 1.6142 20.3984 1.39858C20.2391 1.13139 19.8922 0.836077 19.5312 0.66264L19.2266 0.517328L12.5938 0.507952C6.26094 0.498577 5.94688 0.503265 5.69375 0.582952ZM18.8797 1.90014C18.9688 1.92826 19.0906 1.99389 19.1469 2.05483C19.2078 2.12045 19.8875 3.85014 20.8344 6.35795L22.4188 10.5486L12.5281 10.5626C7.09063 10.5673 2.63281 10.5626 2.61875 10.5486C2.60469 10.5392 2.85781 9.83139 3.17656 8.98295L3.75781 7.44076L4.8125 7.42201C5.72188 7.40795 5.89062 7.39389 6.02188 7.32358C6.45781 7.08451 6.47188 6.4142 6.04531 6.13295C5.94219 6.06264 5.78281 6.04389 5.1125 6.02514L4.30625 6.0017L4.54063 5.38295L4.775 4.7642L6.33125 4.75014C7.78438 4.73608 7.89219 4.73139 8.04219 4.64233C8.45938 4.39389 8.48281 3.77045 8.08906 3.4892C7.92969 3.3767 7.91563 3.3767 6.62656 3.36264C5.64219 3.35326 5.32344 3.33451 5.34219 3.29233C5.74531 2.1392 5.84844 1.96108 6.14844 1.88608C6.34063 1.8392 18.7109 1.85327 18.8797 1.90014ZM22.7656 12.0158C22.8547 12.058 22.9766 12.1658 23.0328 12.2548L23.1406 12.4142V14.8611V17.308L23.0328 17.4673C22.9766 17.5564 22.8547 17.6642 22.7656 17.7064C22.6109 17.7861 22.025 17.7908 12.5 17.7908C2.975 17.7908 2.38906 17.7861 2.23906 17.7064C2.15 17.6642 2.03281 17.5658 1.98125 17.4955C1.88281 17.3642 1.88281 17.308 1.86875 14.8892L1.85469 12.4189L1.9625 12.2548C2.02344 12.1658 2.14531 12.058 2.23438 12.0158C2.38906 11.9361 2.975 11.9314 12.5 11.9314C22.025 11.9314 22.6109 11.9361 22.7656 12.0158Z" fill="#D9D9D9"/>
<path d="M3.30781 14.2895C3.125 14.4113 2.98438 14.6598 2.98438 14.8613C2.98438 15.0629 3.125 15.3113 3.30781 15.4332L3.46719 15.541H8.63281H13.7984L13.9578 15.4332C14.375 15.1566 14.375 14.566 13.9578 14.2895L13.7984 14.1816H8.63281H3.46719L3.30781 14.2895Z" fill="#D9D9D9"/>
<path d="M15.936 14.2742C15.5095 14.532 15.5282 15.2352 15.9688 15.4555C16.2079 15.5773 17.4173 15.5773 17.6563 15.4555C18.097 15.2352 18.1157 14.532 17.6892 14.2742C17.5579 14.1898 17.4501 14.1805 16.8126 14.1805C16.1751 14.1805 16.0673 14.1898 15.936 14.2742Z" fill="#D9D9D9"/>
<path d="M19.9576 14.266C19.7233 14.3926 19.6154 14.6176 19.6389 14.9223C19.6529 15.1004 19.6858 15.1988 19.7701 15.2879C19.9811 15.5176 20.0842 15.541 20.8342 15.541C21.4811 15.541 21.542 15.5316 21.692 15.4332C21.8748 15.3113 22.0154 15.0629 22.0154 14.8613C22.0154 14.6598 21.8748 14.4113 21.692 14.2895C21.542 14.191 21.4811 14.1816 20.8248 14.1816C20.2295 14.1816 20.0889 14.1957 19.9576 14.266Z" fill="#D9D9D9"/>
</svg>
