<svg width="23" height="16" viewBox="0 0 23 16" fill="none" xmlns="http://www.w3.org/2000/svg">
<path d="M10.5531 0.0886717C7.37497 0.374609 4.5109 1.95898 2.61715 4.47148C1.38903 6.10273 0.67184 7.88867 0.437465 9.90898C0.362465 10.523 0.362465 11.9012 0.432778 12.473C0.535903 13.284 0.704653 14.0059 0.868715 14.334C1.16872 14.9246 1.78278 15.398 2.43903 15.534C2.91715 15.6371 20.0828 15.6371 20.5609 15.534C21.2218 15.3934 21.85 14.9152 22.1359 14.3293C22.2953 14.0059 22.4687 13.2605 22.5672 12.473C22.6375 11.9012 22.6375 10.523 22.5625 9.90898C21.9718 4.84648 18.0906 0.876171 13.0234 0.158984C12.4234 0.0699215 11.139 0.0371084 10.5531 0.0886717ZM12.8359 1.6168C16.675 2.13711 19.9187 5.04805 20.875 8.84023C21.2359 10.2746 21.2453 12.2105 20.8984 13.434C20.8187 13.7059 20.65 13.9309 20.4343 14.048C20.2984 14.123 19.7125 14.1277 11.5 14.1277C3.28747 14.1277 2.70153 14.123 2.56559 14.048C2.34997 13.9309 2.18122 13.7059 2.10153 13.434C1.85778 12.5809 1.7734 11.0621 1.90934 9.98867C2.4484 5.77461 5.6734 2.39961 9.88278 1.6543C10.7593 1.49961 11.8562 1.48555 12.8359 1.6168Z" fill="#D9D9D9"/>
<path d="M10.6097 3.22853C7.83006 3.57071 5.46756 5.25353 4.28162 7.7379C3.84099 8.66134 3.62068 9.5004 3.52224 10.5926C3.47537 11.1785 3.47537 11.2535 3.55037 11.4504C3.67693 11.7785 3.91131 11.9192 4.28162 11.891C4.51131 11.8723 4.59099 11.8488 4.70818 11.7317C4.90974 11.5442 4.92849 11.4692 4.98474 10.752C5.16287 8.38009 6.54568 6.33634 8.66443 5.31446C9.60662 4.85978 10.4551 4.6629 11.5004 4.6629C12.2644 4.6629 12.7707 4.74259 13.4926 4.9629C13.8394 5.07071 14.0082 5.09884 14.1394 5.0754C14.3504 5.04259 14.6035 4.83634 14.6879 4.63478C14.7629 4.45196 14.7254 4.09571 14.6082 3.93634C14.4394 3.70665 13.7691 3.4629 12.8597 3.30353C12.3301 3.20978 11.1066 3.16759 10.6097 3.22853Z" fill="#D9D9D9"/>
<path d="M16.3048 5.39031C16.2532 5.41843 15.3344 6.31843 14.261 7.38718L12.311 9.33249L12.0391 9.25281C11.6126 9.12624 11.0454 9.17312 10.6563 9.36062C10.2579 9.55281 10.0235 9.74968 9.81257 10.0825C9.161 11.0856 9.53132 12.4637 10.5907 12.9841C12.1469 13.7528 13.8813 12.3606 13.4501 10.6825L13.3704 10.3825L15.3157 8.43249C16.3844 7.36374 17.2844 6.42624 17.3079 6.35593C17.3782 6.16843 17.3735 5.87312 17.2938 5.72312C17.1579 5.46062 17.0032 5.36687 16.6891 5.35281C16.5298 5.34343 16.3563 5.36218 16.3048 5.39031Z" fill="#D9D9D9"/>
</svg>
